<?xml version="1.0" standalone="no"?>
<!DOCTYPE svg PUBLIC "-//W3C//DTD SVG 20010904//EN"
 "http://www.w3.org/TR/2001/REC-SVG-20010904/DTD/svg10.dtd">
<svg version="1.0" xmlns="http://www.w3.org/2000/svg"
 width="200.000000pt" height="200.000000pt" viewBox="0 0 200.000000 200.000000"
 preserveAspectRatio="xMidYMid meet">
<metadata>
Created by potrace 1.11, written by Peter Selinger 2001-2013
</metadata>
<g transform="translate(0.000000,200.000000) scale(0.100000,-0.100000)"
fill="#000000" stroke="none">
<path d="M905 1882 c-136 -47 -204 -156 -210 -340 -3 -86 -5 -94 -29 -113 -35
-27 -56 -70 -56 -112 0 -31 -4 -36 -43 -51 -98 -37 -159 -124 -159 -226 0
-106 71 -203 170 -231 62 -17 856 -18 918 0 23 6 62 29 87 51 93 82 108 220
36 322 -29 40 -97 88 -126 88 -19 0 -23 5 -24 33 -2 76 -34 157 -82 208 -30
31 -40 50 -43 82 -12 122 -74 223 -167 271 -73 38 -192 45 -272 18z m230 -152
c32 -20 65 -72 65 -103 0 -10 -17 -16 -63 -19 -99 -8 -184 -61 -233 -144 -25
-42 -26 -43 -48 -28 -22 14 -23 21 -21 107 3 131 30 181 114 208 43 14 149 2
186 -21z"/>
<path d="M532 683 c-22 -9 -33 -40 -22 -67 12 -33 64 -37 80 -6 11 20 4 70
-10 70 -5 0 -14 2 -22 4 -7 3 -19 2 -26 -1z"/>
<path d="M1004 620 c-35 -14 -64 -59 -64 -101 0 -56 15 -86 82 -167 71 -86 93
-136 74 -167 -7 -11 -25 -21 -39 -23 -30 -4 -49 23 -50 74 -1 32 -3 34 -34 34
-29 0 -33 -3 -34 -27 -3 -78 8 -106 51 -128 63 -33 159 -6 180 51 22 57 3 135
-47 189 -34 38 -90 110 -100 130 -13 24 -7 66 10 77 37 23 66 -1 74 -62 5 -36
9 -40 33 -40 28 0 40 19 40 63 0 33 -30 84 -56 96 -29 13 -89 14 -120 1z"/>
<path d="M1293 620 c-52 -21 -78 -112 -48 -171 16 -31 68 -101 99 -131 63 -64
68 -158 8 -158 -31 0 -44 17 -49 64 -6 46 -7 47 -37 44 -29 -3 -31 -6 -34 -45
-4 -58 19 -98 64 -113 96 -32 190 31 178 120 -8 56 -17 73 -89 162 -76 95 -92
137 -63 166 32 32 78 -6 78 -66 0 -32 2 -33 33 -30 30 3 32 6 35 45 4 51 -20
100 -54 113 -31 12 -91 12 -121 0z"/>
<path d="M1542 366 l3 -260 38 -2 37 -2 0 122 0 121 47 0 48 0 0 -119 c0 -111
1 -119 20 -122 11 -2 29 -1 40 2 19 5 20 13 20 262 l0 257 -40 0 -40 0 0 -107
1 -108 -48 0 -48 0 0 110 0 111 -40 -3 -40 -2 2 -260z"/>
<path d="M216 521 c-5 -7 3 -49 29 -171 2 -8 15 -65 29 -127 14 -61 26 -113
26 -115 0 -2 15 -4 34 -4 33 -1 34 0 45 50 6 28 26 120 46 205 19 85 35 157
35 161 0 12 -68 10 -73 -3 -2 -7 -15 -77 -28 -157 -23 -144 -24 -145 -31 -90
-4 30 -16 100 -26 155 l-18 100 -31 2 c-18 2 -34 -1 -37 -6z"/>
<path d="M510 314 l0 -214 38 4 37 3 0 209 0 209 -37 2 -38 1 0 -214z"/>
<path d="M699 515 c-28 -15 -50 -61 -44 -92 2 -10 4 -21 4 -25 1 -4 15 -6 31
-6 24 1 30 5 30 24 0 40 11 54 41 54 21 0 29 -5 30 -17 1 -10 2 -34 4 -53 3
-33 0 -36 -46 -60 -62 -31 -88 -58 -99 -105 -23 -101 60 -172 134 -114 25 20
26 20 26 2 0 -15 7 -19 30 -19 l30 0 0 177 c0 190 -6 219 -47 238 -33 15 -93
13 -124 -4z m96 -273 c2 -62 -7 -82 -36 -82 -24 0 -43 44 -34 78 6 25 54 76
64 67 3 -3 6 -31 6 -63z"/>
</g>
</svg>
